<svg width="36" height="36" viewBox="0 0 36 36" fill="none" xmlns="http://www.w3.org/2000/svg">
<g clip-path="url(#clip0_8_79)">
<path d="M34.8522 17.4802L1.24278 0.629307C1.10617 0.561003 0.949477 0.544932 0.800816 0.581093C0.635824 0.621881 0.493717 0.726385 0.405611 0.871724C0.317504 1.01706 0.290577 1.19139 0.330726 1.35654L3.79412 15.5074C3.84635 15.7204 4.00305 15.8931 4.21198 15.9614L10.1464 17.9985L4.21599 20.0356C4.00707 20.1079 3.85037 20.2766 3.80216 20.4896L0.330726 34.6606C0.294566 34.8092 0.310637 34.9659 0.378941 35.0985C0.535637 35.4159 0.921352 35.5445 1.24278 35.3878L34.8522 18.6333C34.9767 18.5731 35.0772 18.4686 35.1414 18.3481C35.2981 18.0266 35.1696 17.6409 34.8522 17.4802ZM4.29233 30.6347L6.31332 22.3739L18.174 18.3039C18.2664 18.2717 18.3428 18.1994 18.3749 18.103C18.4312 17.9342 18.3428 17.7534 18.174 17.6931L6.31332 13.6271L4.30037 5.3985L29.5325 18.0507L4.29233 30.6347Z" fill="#456288" fill-opacity="0.5"/>
</g>
<defs>
<clipPath id="clip0_8_79">
<rect width="36" height="36" fill="white"/>
</clipPath>
</defs>
</svg>
